<svg width="43" height="50" viewBox="0 0 43 50" fill="none" xmlns="http://www.w3.org/2000/svg">
<path d="M24.6139 12.0805H21.3282V3.69127H23.1659C23.6533 3.69128 24.1207 3.49684 24.4654 3.15073C24.81 2.80462 25.0036 2.33518 25.0037 1.84569C25.0036 1.35619 24.81 0.886699 24.4654 0.540577C24.1207 0.194456 23.6533 4.82249e-06 23.1659 0H6.23699C5.74961 4.82249e-06 5.28217 0.194456 4.93753 0.540577C4.59289 0.886699 4.39926 1.35614 4.39925 1.84564C4.39927 2.33513 4.59289 2.80462 4.93753 3.15073C5.28217 3.49684 5.74961 3.69128 6.23699 3.69127H8.07474V12.0805H4.78924C3.51908 12.0805 2.30096 12.5873 1.40281 13.4893C0.504655 14.3913 2.21003e-05 15.6147 2.23692e-07 16.8904V40.604C-0.000263394 41.4703 0.232479 42.3205 0.673603 43.0649C1.11473 43.8093 1.74788 44.4203 2.50614 44.8331V47.707C2.50614 48.3151 2.74667 48.8983 3.17483 49.3283C3.603 49.7584 4.18372 50 4.78924 50C5.39476 50 5.97548 49.7584 6.40365 49.3283C6.83181 48.8983 7.07234 48.3151 7.07234 47.707V45.4139H22.3308V47.7069C22.3308 48.3151 22.5713 48.8983 22.9995 49.3283C23.4277 49.7584 24.0083 49.9999 24.6139 49.9999C25.2194 49.9999 25.8001 49.7584 26.2283 49.3283C26.6564 48.8983 26.897 48.3151 26.897 47.7069V44.8331C27.6552 44.4202 28.2883 43.8093 28.7294 43.0649C29.1705 42.3205 29.4032 41.4703 29.4029 40.604V16.8904C29.4029 16.2588 29.2791 15.6333 29.0384 15.0497C28.7977 14.4662 28.445 13.936 28.0002 13.4893C27.5555 13.0427 27.0276 12.6884 26.4466 12.4467C25.8656 12.2049 25.2428 12.0805 24.6139 12.0805ZM10.7014 3.69127H18.7015V12.0805H10.7014V3.69127Z" fill="#D3C1E6"/>
</svg>
